<svg width="512" height="512" viewBox="0 0 512 512" fill="none" xmlns="http://www.w3.org/2000/svg">
  <rect width="512" height="512" rx="96" fill="#111214"/>
  <circle cx="256" cy="256" r="188" fill="#102235"/>
  <path d="M108 173L204 132L308 173L404 132V339L308 380L204 339L108 380V173Z" fill="#EAF9FF"/>
  <path d="M204 132V339" stroke="#C8DFEA" stroke-width="14" stroke-linecap="round"/>
  <path d="M308 173V380" stroke="#C8DFEA" stroke-width="14" stroke-linecap="round"/>
  <path d="M136 300C174 270 204 264 246 281C292 300 326 283 377 232" stroke="#147DFF" stroke-width="22" stroke-linecap="round"/>
  <path d="M143 215C165 198 185 193 208 200" stroke="#26D96C" stroke-width="18" stroke-linecap="round"/>
  <path d="M322 322C342 311 360 306 382 309" stroke="#FFCC00" stroke-width="18" stroke-linecap="round"/>
  <path d="M256 135C214.579 135 181 168.579 181 210C181 272 256 339 256 339C256 339 331 272 331 210C331 168.579 297.421 135 256 135Z" fill="#FF3B30"/>
  <circle cx="256" cy="210" r="35" fill="#F8FAFC"/>
  <path d="M236 214L251 229L280 195" stroke="#16BFF2" stroke-width="13" stroke-linecap="round" stroke-linejoin="round"/>
  <circle cx="382" cy="150" r="37" fill="#16BFF2"/>
  <path d="M365 157L382 140L399 157" stroke="#F8FAFC" stroke-width="11" stroke-linecap="round" stroke-linejoin="round"/>
  <path d="M371 154V177H393V154" stroke="#F8FAFC" stroke-width="11" stroke-linecap="round" stroke-linejoin="round"/>
</svg>
